<svg id="SvgjsSvg1000" xmlns="http://www.w3.org/2000/svg" version="1.1" xmlns:xlink="http://www.w3.org/1999/xlink" xmlns:svgjs="http://svgjs.com/svgjs" width="20" height="21.995000000000005"><defs id="SvgjsDefs1001"><filter id="SvgjsFilter1008" width="200%" height="200%" x="-50%" y="-50%"><feGaussianBlur id="SvgjsFeGaussianBlur1009" stdDeviation="0 " result="SvgjsFeGaussianBlur1009Out" in="SourceGraphic"></feGaussianBlur></filter></defs><path id="SvgjsPath1007" d="M189.995 477.61C195.516 477.61 199.991 482.08500000000004 199.991 487.605C199.991 493.125 195.51600000000002 497.6 189.995 497.6C184.475 497.6 180 493.125 180 487.605C180 482.08500000000004 184.475 477.61 189.995 477.61Z " fill="#000101" fill-opacity="0.14" filter="url(#SvgjsFilter1008)" transform="matrix(1,0,0,1,-180,-476)"></path><path id="SvgjsPath1010" d="M189.995 475.61C195.516 475.61 199.991 480.08500000000004 199.991 485.605C199.991 491.125 195.51600000000002 495.6 189.995 495.6C184.475 495.6 180 491.125 180 485.605C180 480.08500000000004 184.475 475.61 189.995 475.61Z " fill="#ffffff" transform="matrix(1,0,0,1,-180,-476)"></path><path id="SvgjsPath1011" d="M189.995 475.61C195.516 475.61 199.991 480.08500000000004 199.991 485.605C199.991 491.125 195.51600000000002 495.6 189.995 495.6C184.475 495.6 180 491.125 180 485.605C180 480.08500000000004 184.475 475.61 189.995 475.61Z " fill="#ffffff" transform="matrix(1,0,0,1,-180,-476)"></path><path id="SvgjsPath1012" d="M189.995 475.61C195.516 475.61 199.991 480.08500000000004 199.991 485.605C199.991 491.125 195.51600000000002 495.6 189.995 495.6C184.475 495.6 180 491.125 180 485.605C180 480.08500000000004 184.475 475.61 189.995 475.61Z " fill="#ffffff" fill-opacity="1" transform="matrix(1,0,0,1,-180,-476)"></path><path id="SvgjsPath1013" d="M189.999 483.704C191.051 483.704 191.904 484.557 191.904 485.609C191.904 486.65999999999997 191.051 487.513 189.999 487.513C188.947 487.513 188.095 486.65999999999997 188.095 485.609C188.095 484.55699999999996 188.947 483.704 189.999 483.704Z " fill="#ffffff" transform="matrix(1,0,0,1,-180,-476)"></path><path id="SvgjsPath1014" d="M189.999 483.704C191.051 483.704 191.904 484.557 191.904 485.609C191.904 486.65999999999997 191.051 487.513 189.999 487.513C188.947 487.513 188.095 486.65999999999997 188.095 485.609C188.095 484.55699999999996 188.947 483.704 189.999 483.704Z " fill="#ababab" fill-opacity="1" transform="matrix(1,0,0,1,-180,-476)"></path></svg>